<svg width="164" height="10" xmlns="http://www.w3.org/2000/svg">

 <g>
  <title>background</title>
  <rect fill="none" id="canvas_background" height="402" width="582" y="-1" x="-1"/>
 </g>
 <g>
  <title>Layer 1</title>
  <path id="svg_1" fill-rule="nonzero" fill="#890025" d="m82,0.034l0,-0.015c3.510002,0.221 5.394997,2.386 7.099998,4.281c1.700005,2 3.200005,3.7 6.200005,3.7s4.5,-1.7 6.199997,-3.7c1.800003,-2 3.800003,-4.3 7.699997,-4.3c3.900002,0 5.900002,2.3 7.700005,4.3c1.699997,2 3.199997,3.7 6.199997,3.7s4.5,-1.7 6.200005,-3.7c1.800003,-2 3.800003,-4.3 7.699997,-4.3c4,0 6,2.3 7.699997,4.3c1.699997,2 3.199997,3.7 6.199997,3.7s4.5,-1.7 6.200012,-3.7c1.672989,-1.858 3.51799,-3.976 6.899994,-4.266l0,2.009c-2.479996,0.276 -3.858002,1.843 -5.399994,3.657c-1.800003,2 -3.800003,4.3 -7.700012,4.3c-3.899994,0 -5.899994,-2.3 -7.699997,-4.3c-1.699997,-2 -3.199997,-3.7 -6.199997,-3.7s-4.5,1.7 -6.199997,3.7c-1.800003,2 -3.800003,4.3 -7.700005,4.3c-3.900002,0 -5.900002,-2.3 -7.699997,-4.3c-1.700005,-2 -3.200005,-3.7 -6.200005,-3.7s-4.5,1.7 -6.199997,3.7c-1.800003,2 -3.800003,4.3 -7.699997,4.3c-3.900002,0 -5.900002,-2.3 -7.700005,-4.3c-1.583,-1.862 -2.991997,-3.464 -5.599998,-3.676l0,0.019c-2.480003,0.276 -3.858002,1.843 -5.400002,3.657c-1.799995,2 -3.799995,4.3 -7.699997,4.3c-3.900002,0 -5.900002,-2.3 -7.700001,-4.3c-1.700001,-2 -3.200001,-3.7 -6.200001,-3.7s-4.5,1.7 -6.200001,3.7c-1.799999,2 -3.799999,4.3 -7.700001,4.3c-3.899998,0 -5.899998,-2.3 -7.699997,-4.3c-1.700001,-2 -3.200001,-3.7 -6.200001,-3.7s-4.5,1.7 -6.200001,3.7c-1.799999,2 -3.799999,4.3 -7.7,4.3c-3.900001,0 -5.9,-2.3 -7.7,-4.3c-1.583,-1.862 -2.992,-3.464 -5.6,-3.676l0,-2.005c3.51,0.221 5.395,2.386 7.1,4.281c1.7,2 3.2,3.7 6.2,3.7s4.499999,-1.7 6.2,-3.7c1.799999,-2 3.799999,-4.3 7.700001,-4.3c3.9,0 5.899998,2.3 7.700001,4.3c1.699997,2 3.199997,3.7 6.199997,3.7s4.5,-1.7 6.200001,-3.7c1.799999,-2 3.799999,-4.3 7.700001,-4.3c4,0 6,2.3 7.700001,4.3c1.700001,2 3.200001,3.7 6.200001,3.7s4.5,-1.7 6.199997,-3.7c1.673004,-1.858 3.517998,-3.976 6.900002,-4.266z"/>
 </g>
</svg>